STARTFONT 2.1
FONT -sni-97480i1-Medium-OT-Normal--24-240-75-75-C-120-iso8859-1
SIZE 24 75 75
FONTBOUNDINGBOX 12 24 0 -6

STARTPROPERTIES 23
FONTNAME_REGISTRY ""
FAMILY_NAME "97480i1"
FOUNDRY "sni"
WEIGHT_NAME "Medium"
SLANT "OT"
SETWIDTH_NAME "Normal"
ADD_STYLE_NAME ""
PIXEL_SIZE 24
POINT_SIZE 240
RESOLUTION_X 75
RESOLUTION_Y 75
SPACING "C"
AVERAGE_WIDTH 120
CHARSET_REGISTRY "iso8859"
CHARSET_ENCODING "1"
FACE_NAME "97801-480 ISO 8859-1"
COPYRIGHT "Copyright (C) Siemens Nixdorf Informationssysteme AG 1992, All Rights Reserved"
X_HEIGHT 12
WEIGHT 10
QUAD_WIDTH 12
DEFAULT_CHAR 0
FONT_DESCENT 6
FONT_ASCENT 18
ENDPROPERTIES

CHARS 256

STARTCHAR C546=0x222
ENCODING 0
SWIDTH 631 0
DWIDTH 12 0
BBX 12 24 0 -6
BITMAP
0000
0000
1F80
3FC0
6060
6660
6060
3FC0
1F80
0000
1F80
3FC0
6060
6660
6060
3FC0
1F80
0000
0000
0000
0000
0000
0000
0000
ENDCHAR

STARTCHAR C001=0x001
ENCODING 1
SWIDTH 631 0
DWIDTH 12 0
BBX 12 24 0 -6
BITMAP
0000
0000
0000
0000
0060
7FE0
7FE0
3860
1C00
0E00
0600
0000
0000
0F00
3FC0
30C0
6660
6660
30C0
3FC0
0F00
0000
0000
0000
ENDCHAR

STARTCHAR C002=0x002
ENCODING 2
SWIDTH 631 0
DWIDTH 12 0
BBX 12 24 0 -6
BITMAP
0000
0000
0000
3C60
7E60
6660
6660
6660
6760
33E0
31E0
0000
0000
0F00
3FC0
30C0
6660
6660
30C0
3FC0
0E00
0000
0000
0000
ENDCHAR

STARTCHAR C003=0x003
ENCODING 3
SWIDTH 631 0
DWIDTH 12 0
BBX 12 24 0 -6
BITMAP
0000
0000
0000
39C0
7FE0
6660
6660
6660
6060
30C0
30C0
0000
0000
0F00
3FC0
30C0
6660
6660
30C0
3FC0
0F00
0000
0000
0000
ENDCHAR

STARTCHAR C004=0x004
ENCODING 4
SWIDTH 631 0
DWIDTH 12 0
BBX 12 24 0 -6
BITMAP
0000
0000
0000
0300
0FE0
4FE0
6300
7300
3B00
1F00
0F00
0000
0000
0F00
3FC0
30C0
6660
6660
30C0
3FC0
0F00
0000
0000
0000
ENDCHAR

STARTCHAR C005=0x005
ENCODING 5
SWIDTH 631 0
DWIDTH 12 0
BBX 12 24 0 -6
BITMAP
0000
0000
0000
63C0
67E0
6660
6660
6660
6660
7E60
7E60
0000
0000
0F00
3FC0
30C0
6660
6660
30C0
3FC0
0F00
0000
0000
0000
ENDCHAR

STARTCHAR C006=0x006
ENCODING 6
SWIDTH 631 0
DWIDTH 12 0
BBX 12 24 0 -6
BITMAP
0000
0000
0000
01C0
67E0
6660
6660
6660
6660
3FC0
3FC0
0000
0000
0F00
3FC0
30C0
6660
6660
30C0
3FC0
0F00
0000
0000
0000
ENDCHAR

STARTCHAR C007=0x007
ENCODING 7
SWIDTH 631 0
DWIDTH 12 0
BBX 12 24 0 -6
BITMAP
0000
0000
0000
7800
7C00
6E00
6700
6380
61C0
60E0
6060
0000
0000
0F00
3FC0
30C0
6660
6660
30C0
3FC0
0F00
0000
0000
0000
ENDCHAR

STARTCHAR C008=0x008
ENCODING 8
SWIDTH 631 0
DWIDTH 12 0
BBX 12 24 0 -6
BITMAP
0000
0000
0000
39C0
7FE0
6660
6660
6660
6660
7FE0
39C0
0000
0000
0F00
3FC0
30C0
6660
6660
30C0
3FC0
0F00
0000
0000
0000
ENDCHAR

STARTCHAR C009=0x009
ENCODING 9
SWIDTH 631 0
DWIDTH 12 0
BBX 12 24 0 -6
BITMAP
0000
0000
0000
3FC0
7FE0
6660
6660
6660
6660
7C60
3860
0000
0000
0F00
3FC0
30C0
6660
6660
30C0
3FC0
0F00
0000
0000
0000
ENDCHAR

STARTCHAR C010=0x00a
ENCODING 10
SWIDTH 631 0
DWIDTH 12 0
BBX 12 24 0 -6
BITMAP
0000
0000
0000
3FE0
7FE0
6600
6600
6600
6600
7FE0
3FE0
0000
0000
0F00
3FC0
30C0
6660
6660
30C0
3FC0
0F00
0000
0000
0000
ENDCHAR

STARTCHAR C011=0x00b
ENCODING 11
SWIDTH 631 0
DWIDTH 12 0
BBX 12 24 0 -6
BITMAP
0000
0000
0000
1980
7FE0
6660
6660
6660
6660
7FE0
7FE0
0000
0000
0F00
3FC0
30C0
6660
6660
30C0
3FC0
0F00
0000
0000
0000
ENDCHAR

STARTCHAR C012=0x00c
ENCODING 12
SWIDTH 631 0
DWIDTH 12 0
BBX 12 24 0 -6
BITMAP
0000
0000
0000
30C0
30C0
6060
6060
6060
30C0
3FC0
0F00
0000
0000
0F00
3FC0
30C0
6660
6660
30C0
3FC0
0F00
0000
0000
0000
ENDCHAR

STARTCHAR C013=0x00d
ENCODING 13
SWIDTH 631 0
DWIDTH 12 0
BBX 12 24 0 -6
BITMAP
0000
0000
0000
0F00
3FC0
30C0
6060
6060
6060
7FE0
7FE0
0000
0000
0F00
3FC0
30C0
6660
6660
30C0
3FC0
0F00
0000
0000
0000
ENDCHAR

STARTCHAR C014=0x00e
ENCODING 14
SWIDTH 631 0
DWIDTH 12 0
BBX 12 24 0 -6
BITMAP
0000
0000
0000
6060
6060
6660
6660
6660
6660
7FE0
7FE0
0000
0000
0F00
3FC0
30C0
6660
6660
30C0
3FC0
0F00
0000
0000
0000
ENDCHAR

STARTCHAR C015=0x00f
ENCODING 15
SWIDTH 631 0
DWIDTH 12 0
BBX 12 24 0 -6
BITMAP
0000
0000
0000
6000
6000
6600
6600
6600
6600
7FE0
7FE0
0000
0000
0F00
3FC0
30C0
6660
6660
30C0
3FC0
0F00
0000
0000
0000
ENDCHAR

STARTCHAR C016=0x010
ENCODING 16
SWIDTH 631 0
DWIDTH 12 0
BBX 12 24 0 -6
BITMAP
0000
0000
0000
0F00
3FC0
30C0
6660
6660
30C0
3FC0
0F00
0000
0060
0060
7FE0
7FE0
3860
1C60
0E00
0600
0000
0000
0000
0000
ENDCHAR

STARTCHAR C017=0x011
ENCODING 17
SWIDTH 631 0
DWIDTH 12 0
BBX 12 24 0 -6
BITMAP
0000
0000
0000
0000
0060
7FE0
7FE0
3860
1C00
0E00
0600
0000
0000
0060
7FE0
7FE0
3860
1C00
0E00
0600
0000
0000
0000
0000
ENDCHAR

STARTCHAR C018=0x012
ENCODING 18
SWIDTH 631 0
DWIDTH 12 0
BBX 12 24 0 -6
BITMAP
0000
0000
0000
0000
3C60
7E60
6660
6660
6660
6760
33E0
31E0
0000
0060
7FE0
7FE0
3860
1C00
0E00
0600
0000
0000
0000
0000
ENDCHAR

STARTCHAR C019=0x013
ENCODING 19
SWIDTH 631 0
DWIDTH 12 0
BBX 12 24 0 -6
BITMAP
0000
0000
0000
0000
39C0
7FE0
6660
6660
6660
6060
30C0
30C0
0000
0060
7FE0
7FE0
3860
1C00
0E00
0600
0000
0000
0000
0000
ENDCHAR

STARTCHAR C020=0x014
ENCODING 20
SWIDTH 631 0
DWIDTH 12 0
BBX 12 24 0 -6
BITMAP
0000
0000
0000
0300
0FE0
4FE0
6300
7300
3B00
1F00
0F00
0000
0000
0060
7FE0
7FE0
3860
1C00
0E00
0600
0000
0000
0000
0000
ENDCHAR

STARTCHAR C021=0x015
ENCODING 21
SWIDTH 631 0
DWIDTH 12 0
BBX 12 24 0 -6
BITMAP
0000
0000
0000
03C0
67E0
6660
6660
6660
6660
7E60
7E60
0000
0000
0060
7FE0
7FE0
3860
1C00
0E00
0600
0000
0000
0000
0000
ENDCHAR

STARTCHAR C022=0x016
ENCODING 22
SWIDTH 631 0
DWIDTH 12 0
BBX 12 24 0 -6
BITMAP
0000
0000
0000
01C0
67E0
6660
6660
6660
6660
3FC0
3FC0
0000
0000
0060
7FE0
7FE0
3860
1C00
0E00
0600
0000
0000
0000
0000
ENDCHAR

STARTCHAR C023=0x017
ENCODING 23
SWIDTH 631 0
DWIDTH 12 0
BBX 12 24 0 -6
BITMAP
0000
0000
0000
7800
7C00
6E00
6700
6380
61C0
60E0
6060
0000
0000
0060
7FE0
7FE0
3860
1C00
0E00
0600
0000
0000
0000
0000
ENDCHAR

STARTCHAR C024=0x018
ENCODING 24
SWIDTH 631 0
DWIDTH 12 0
BBX 12 24 0 -6
BITMAP
0000
0000
0000
39C0
7FE0
6660
6660
6660
6660
7FE0
39C0
0000
0000
0060
7FE0
7FE0
3860
1C00
0E00
0600
0000
0000
0000
0000
ENDCHAR

STARTCHAR C025=0x019
ENCODING 25
SWIDTH 631 0
DWIDTH 12 0
BBX 12 24 0 -6
BITMAP
0000
0000
0000
3FC0
7FE0
6660
6660
6660
6660
7C60
3860
0000
0000
0060
7FE0
7FE0
3860
1C00
0E00
0600
0000
0000
0000
0000
ENDCHAR

STARTCHAR C026=0x01a
ENCODING 26
SWIDTH 631 0
DWIDTH 12 0
BBX 12 24 0 -6
BITMAP
0000
0000
0000
3FE0
7FE0
6600
6600
6600
6600
7FE0
3FE0
0000
0000
0060
7FE0
7FE0
3860
1C00
0E00
0600
0000
0000
0000
0000
ENDCHAR

STARTCHAR C027=0x01b
ENCODING 27
SWIDTH 631 0
DWIDTH 12 0
BBX 12 24 0 -6
BITMAP
0000
0000
0000
1980
7FE0
6660
6660
6660
6660
7FE0
7FE0
0000
0000
0060
7FE0
7FE0
3860
1C00
0E00
0600
0000
0000
0000
0000
ENDCHAR

STARTCHAR C028=0x01c
ENCODING 28
SWIDTH 631 0
DWIDTH 12 0
BBX 12 24 0 -6
BITMAP
0000
0000
0000
30C0
30C0
6060
6060
6060
30C0
3FC0
0F00
0000
0000
0060
7FE0
7FE0
3860
1C00
0E00
0600
0000
0000
0000
0000
ENDCHAR

STARTCHAR C029=0x01d
ENCODING 29
SWIDTH 631 0
DWIDTH 12 0
BBX 12 24 0 -6
BITMAP
0000
0000
0000
0F00
3FC0
30C0
6060
6060
6060
7FE0
7FE0
0000
0000
0060
7FE0
7FE0
3860
1C00
0E00
0600
0000
0000
0000
0000
ENDCHAR

STARTCHAR C030=0x01e
ENCODING 30
SWIDTH 631 0
DWIDTH 12 0
BBX 12 24 0 -6
BITMAP
0000
0000
0000
6060
6060
6660
6660
6660
6660
7FE0
7FE0
0000
0000
0060
7FE0
7FE0
3860
1C00
0E00
0600
0000
0000
0000
0000
ENDCHAR

STARTCHAR C031=0x01f
ENCODING 31
SWIDTH 631 0
DWIDTH 12 0
BBX 12 24 0 -6
BITMAP
0000
0000
0000
6000
6000
6600
6600
6600
6600
7FE0
7FE0
0000
0000
0060
7FE0
7FE0
3860
1C00
0E00
0600
0000
0000
0000
0000
ENDCHAR

STARTCHAR C032=0x020
ENCODING 32
SWIDTH 631 0
DWIDTH 12 0
BBX 12 24 0 -6
BITMAP
0000
0000
0000
0000
0000
0000
0000
0000
0000
0000
0000
0000
0000
0000
0000
0000
0000
0000
0000
0000
0000
0000
0000
0000
ENDCHAR

STARTCHAR C033=0x021
ENCODING 33
SWIDTH 631 0
DWIDTH 12 0
BBX 12 24 0 -6
BITMAP
0000
0000
0600
0600
0600
0600
0600
0600
0600
0600
0600
0600
0600
0000
0000
0600
0600
0000
0000
0000
0000
0000
0000
0000
ENDCHAR

STARTCHAR C034=0x022
ENCODING 34
SWIDTH 631 0
DWIDTH 12 0
BBX 12 24 0 -6
BITMAP
0000
0000
1980
1980
1980
1980
1980
1980
0000
0000
0000
0000
0000
0000
0000
0000
0000
0000
0000
0000
0000
0000
0000
0000
ENDCHAR

STARTCHAR C035=0x023
ENCODING 35
SWIDTH 631 0
DWIDTH 12 0
BBX 12 24 0 -6
BITMAP
0000
0000
1980
1980
1980
7FE0
7FE0
1980
1980
1980
1980
1980
7FE0
7FE0
1980
1980
1980
0000
0000
0000
0000
0000
0000
0000
ENDCHAR

STARTCHAR C237=0x0ed
ENCODING 36
SWIDTH 631 0
DWIDTH 12 0
BBX 12 24 0 -6
BITMAP
0000
0000
0600
1F80
3FC0
66E0
6660
6600
3E00
1F80
07C0
0660
0660
6660
7FC0
3F80
0600
0000
0000
0000
0000
0000
0000
0000
ENDCHAR

STARTCHAR C037=0x025
ENCODING 37
SWIDTH 631 0
DWIDTH 12 0
BBX 12 24 0 -6
BITMAP
0000
0000
3860
6CC0
44C0
6D80
3980
0300
0300
0600
0C00
0C00
19C0
1B60
3220
3360
61C0
0000
0000
0000
0000
0000
0000
0000
ENDCHAR

STARTCHAR C038=0x026
ENCODING 38
SWIDTH 631 0
DWIDTH 12 0
BBX 12 24 0 -6
BITMAP
0000
0000
1C00
3E00
6300
6300
6300
3E00
1C00
3E00
7700
6360
61E0
61C0
6180
3FE0
1E60
0000
0000
0000
0000
0000
0000
0000
ENDCHAR

STARTCHAR C039=0x027
ENCODING 39
SWIDTH 631 0
DWIDTH 12 0
BBX 12 24 0 -6
BITMAP
0000
0000
0700
0700
0700
0700
0700
0000
0000
0000
0000
0000
0000
0000
0000
0000
0000
0000
0000
0000
0000
0000
0000
0000
ENDCHAR

STARTCHAR C040=0x028
ENCODING 40
SWIDTH 631 0
DWIDTH 12 0
BBX 12 24 0 -6
BITMAP
0000
0000
0300
0600
0E00
0C00
1C00
1800
1800
1800
1800
1800
1C00
0C00
0E00
0600
0300
0000
0000
0000
0000
0000
0000
0000
ENDCHAR

STARTCHAR C041=0x029
ENCODING 41
SWIDTH 631 0
DWIDTH 12 0
BBX 12 24 0 -6
BITMAP
0000
0000
1800
0C00
0E00
0600
0700
0300
0300
0300
0300
0300
0700
0600
0E00
0C00
1800
0000
0000
0000
0000
0000
0000
0000
ENDCHAR

STARTCHAR C042=0x02a
ENCODING 42
SWIDTH 631 0
DWIDTH 12 0
BBX 12 24 0 -6
BITMAP
0000
0000
0000
0000
0600
0600
6660
76E0
1F80
0F00
0F00
1F80
76E0
6660
0600
0600
0000
0000
0000
0000
0000
0000
0000
0000
ENDCHAR

STARTCHAR C043=0x02b
ENCODING 43
SWIDTH 631 0
DWIDTH 12 0
BBX 12 24 0 -6
BITMAP
0000
0000
0000
0000
0600
0600
0600
0600
0600
7FE0
7FE0
0600
0600
0600
0600
0600
0000
0000
0000
0000
0000
0000
0000
0000
ENDCHAR

STARTCHAR C044=0x02c
ENCODING 44
SWIDTH 631 0
DWIDTH 12 0
BBX 12 24 0 -6
BITMAP
0000
0000
0000
0000
0000
0000
0000
0000
0000
0000
0000
0000
0000
0000
0600
0F00
0F00
0600
0600
0C00
0800
0000
0000
0000
ENDCHAR

STARTCHAR C045=0x02d
ENCODING 45
SWIDTH 631 0
DWIDTH 12 0
BBX 12 24 0 -6
BITMAP
0000
0000
0000
0000
0000
0000
0000
0000
0000
3FC0
3FC0
0000
0000
0000
0000
0000
0000
0000
0000
0000
0000
0000
0000
0000
ENDCHAR

STARTCHAR C046=0x02e
ENCODING 46
SWIDTH 631 0
DWIDTH 12 0
BBX 12 24 0 -6
BITMAP
0000
0000
0000
0000
0000
0000
0000
0000
0000
0000
0000
0000
0000
0600
0F00
0F00
0600
0000
0000
0000
0000
0000
0000
0000
ENDCHAR

STARTCHAR C047=0x02f
ENCODING 47
SWIDTH 631 0
DWIDTH 12 0
BBX 12 24 0 -6
BITMAP
0000
0000
0000
0060
00C0
00C0
0180
0300
0300
0600
0C00
0C00
1800
3000
3000
6000
0000
0000
0000
0000
0000
0000
0000
0000
ENDCHAR

STARTCHAR C048=0x030
ENCODING 48
SWIDTH 631 0
DWIDTH 12 0
BBX 12 24 0 -6
BITMAP
0000
0000
1F80
3FC0
70E0
6060
6060
6660
6660
6660
6660
6660
6060
6060
70E0
3FC0
1F80
0000
0000
0000
0000
0000
0000
0000
ENDCHAR

STARTCHAR C049=0x031
ENCODING 49
SWIDTH 631 0
DWIDTH 12 0
BBX 12 24 0 -6
BITMAP
0000
0000
0300
0700
0F00
1F00
3B00
3300
0300
0300
0300
0300
0300
0300
0300
0300
0300
0000
0000
0000
0000
0000
0000
0000
ENDCHAR

STARTCHAR C050=0x032
ENCODING 50
SWIDTH 631 0
DWIDTH 12 0
BBX 12 24 0 -6
BITMAP
0000
0000
1F80
3FC0
70E0
6060
0060
0060
00E0
07C0
1F80
3800
3000
6000
6000
7FE0
7FE0
0000
0000
0000
0000
0000
0000
0000
ENDCHAR

STARTCHAR C051=0x033
ENCODING 51
SWIDTH 631 0
DWIDTH 12 0
BBX 12 24 0 -6
BITMAP
0000
0000
1F80
3FC0
60E0
6060
0060
00C0
0F80
0FC0
0060
0060
0060
6060
60E0
3FC0
1F80
0000
0000
0000
0000
0000
0000
0000
ENDCHAR

STARTCHAR C052=0x034
ENCODING 52
SWIDTH 631 0
DWIDTH 12 0
BBX 12 24 0 -6
BITMAP
0000
0000
0600
0600
0C00
0C00
1800
1800
3180
3180
6180
6180
7FE0
7FE0
0180
0180
0180
0000
0000
0000
0000
0000
0000
0000
ENDCHAR

STARTCHAR C053=0x035
ENCODING 53
SWIDTH 631 0
DWIDTH 12 0
BBX 12 24 0 -6
BITMAP
0000
0000
7FC0
7FC0
6000
6000
6000
7F80
7FC0
00E0
0060
0060
0060
6060
60E0
3FC0
1F80
0000
0000
0000
0000
0000
0000
0000
ENDCHAR

STARTCHAR C054=0x036
ENCODING 54
SWIDTH 631 0
DWIDTH 12 0
BBX 12 24 0 -6
BITMAP
0000
0000
0F80
1F80
3800
7000
6000
6000
6F80
7FC0
70E0
6060
6060
6060
70E0
3FC0
1F80
0000
0000
0000
0000
0000
0000
0000
ENDCHAR

STARTCHAR C055=0x037
ENCODING 55
SWIDTH 631 0
DWIDTH 12 0
BBX 12 24 0 -6
BITMAP
0000
0000
7FE0
7FE0
00C0
0180
0180
0300
0600
0600
0C00
0C00
0C00
0C00
0C00
0C00
0C00
0000
0000
0000
0000
0000
0000
0000
ENDCHAR

STARTCHAR C056=0x038
ENCODING 56
SWIDTH 631 0
DWIDTH 12 0
BBX 12 24 0 -6
BITMAP
0000
0000
1F80
3FC0
70E0
6060
6060
70E0
3FC0
1F80
3FC0
70E0
6060
6060
70E0
3FC0
1F80
0000
0000
0000
0000
0000
0000
0000
ENDCHAR

STARTCHAR C057=0x039
ENCODING 57
SWIDTH 631 0
DWIDTH 12 0
BBX 12 24 0 -6
BITMAP
0000
0000
1F80
3FC0
70E0
6060
6060
6060
70E0
3FE0
1F60
0060
0060
0060
00E0
3FC0
3F80
0000
0000
0000
0000
0000
0000
0000
ENDCHAR

STARTCHAR C058=0x03a
ENCODING 58
SWIDTH 631 0
DWIDTH 12 0
BBX 12 24 0 -6
BITMAP
0000
0000
0000
0000
0000
0000
0000
0600
0F00
0F00
0600
0000
0000
0600
0F00
0F00
0600
0000
0000
0000
0000
0000
0000
0000
ENDCHAR

STARTCHAR C059=0x03b
ENCODING 59
SWIDTH 631 0
DWIDTH 12 0
BBX 12 24 0 -6
BITMAP
0000
0000
0000
0000
0000
0000
0000
0600
0F00
0F00
0600
0000
0000
0000
0600
0F00
0F00
0600
0600
0600
0C00
0800
0000
0000
ENDCHAR

STARTCHAR C060=0x03c
ENCODING 60
SWIDTH 631 0
DWIDTH 12 0
BBX 12 24 0 -6
BITMAP
0000
0000
00C0
0180
0300
0600
0C00
1800
3000
6000
3000
1800
0C00
0600
0300
0180
00C0
0000
0000
0000
0000
0000
0000
0000
ENDCHAR

STARTCHAR C061=0x03d
ENCODING 61
SWIDTH 631 0
DWIDTH 12 0
BBX 12 24 0 -6
BITMAP
0000
0000
0000
0000
0000
0000
0000
7FC0
7FC0
0000
0000
0000
7FC0
7FC0
0000
0000
0000
0000
0000
0000
0000
0000
0000
0000
ENDCHAR

STARTCHAR C062=0x03e
ENCODING 62
SWIDTH 631 0
DWIDTH 12 0
BBX 12 24 0 -6
BITMAP
0000
0000
3000
1800
0C00
0600
0300
0180
00C0
0060
00C0
0180
0300
0600
0C00
1800
3000
0000
0000
0000
0000
0000
0000
0000
ENDCHAR

STARTCHAR C063=0x03f
ENCODING 63
SWIDTH 631 0
DWIDTH 12 0
BBX 12 24 0 -6
BITMAP
0000
0000
1F00
3FC0
60C0
6060
0060
00C0
0180
0300
0600
0600
0600
0000
0000
0600
0600
0000
0000
0000
0000
0000
0000
0000
ENDCHAR

STARTCHAR C064=0x040
ENCODING 64
SWIDTH 631 0
DWIDTH 12 0
BBX 12 24 0 -6
BITMAP
0000
0000
1F80
3F80
70C0
60C0
0060
1C60
3E60
7760
6360
6360
6360
6360
77E0
3FE0
1EC0
0000
0000
0000
0000
0000
0000
0000
ENDCHAR

STARTCHAR C065=0x041
ENCODING 65
SWIDTH 631 0
DWIDTH 12 0
BBX 12 24 0 -6
BITMAP
0000
0000
0600
0F00
1F80
39C0
70E0
6060
6060
6060
7FE0
7FE0
6060
6060
6060
6060
6060
0000
0000
0000
0000
0000
0000
0000
ENDCHAR

STARTCHAR C066=0x042
ENCODING 66
SWIDTH 631 0
DWIDTH 12 0
BBX 12 24 0 -6
BITMAP
0000
0000
7F80
7FC0
30C0
3060
3060
30C0
3F80
3F80
30C0
3060
3060
3060
30C0
7FC0
7F00
0000
0000
0000
0000
0000
0000
0000
ENDCHAR

STARTCHAR C067=0x043
ENCODING 67
SWIDTH 631 0
DWIDTH 12 0
BBX 12 24 0 -6
BITMAP
0000
0000
1F80
3FC0
70E0
6060
6000
6000
6000
6000
6000
6000
6000
6060
70E0
3FC0
1F80
0000
0000
0000
0000
0000
0000
0000
ENDCHAR

STARTCHAR C068=0x044
ENCODING 68
SWIDTH 631 0
DWIDTH 12 0
BBX 12 24 0 -6
BITMAP
0000
0000
7F00
7F80
31C0
30E0
3060
3060
3060
3060
3060
3060
3060
30E0
31C0
7F80
7F00
0000
0000
0000
0000
0000
0000
0000
ENDCHAR

STARTCHAR C069=0x045
ENCODING 69
SWIDTH 631 0
DWIDTH 12 0
BBX 12 24 0 -6
BITMAP
0000
0000
7FE0
7FE0
6000
6000
6000
6000
7F80
7F80
6000
6000
6000
6000
6000
7FE0
7FE0
0000
0000
0000
0000
0000
0000
0000
ENDCHAR

STARTCHAR C070=0x046
ENCODING 70
SWIDTH 631 0
DWIDTH 12 0
BBX 12 24 0 -6
BITMAP
0000
0000
7FE0
7FE0
6000
6000
6000
6000
6000
7F80
7F80
6000
6000
6000
6000
6000
6000
0000
0000
0000
0000
0000
0000
0000
ENDCHAR

STARTCHAR C071=0x047
ENCODING 71
SWIDTH 631 0
DWIDTH 12 0
BBX 12 24 0 -6
BITMAP
0000
0000
1F80
3FC0
70E0
6060
6000
6000
6000
63E0
63E0
6060
6060
6060
70E0
3FC0
1F80
0000
0000
0000
0000
0000
0000
0000
ENDCHAR

STARTCHAR C072=0x048
ENCODING 72
SWIDTH 631 0
DWIDTH 12 0
BBX 12 24 0 -6
BITMAP
0000
0000
6060
6060
6060
6060
6060
6060
7FE0
7FE0
6060
6060
6060
6060
6060
6060
6060
0000
0000
0000
0000
0000
0000
0000
ENDCHAR

STARTCHAR C073=0x049
ENCODING 73
SWIDTH 631 0
DWIDTH 12 0
BBX 12 24 0 -6
BITMAP
0000
0000
3FC0
3FC0
0600
0600
0600
0600
0600
0600
0600
0600
0600
0600
0600
3FC0
3FC0
0000
0000
0000
0000
0000
0000
0000
ENDCHAR

STARTCHAR C074=0x04a
ENCODING 74
SWIDTH 631 0
DWIDTH 12 0
BBX 12 24 0 -6
BITMAP
0000
0000
00C0
00C0
00C0
00C0
00C0
00C0
00C0
00C0
00C0
00C0
00C0
60C0
61C0
3F80
1F00
0000
0000
0000
0000
0000
0000
0000
ENDCHAR

STARTCHAR C075=0x04b
ENCODING 75
SWIDTH 631 0
DWIDTH 12 0
BBX 12 24 0 -6
BITMAP
0000
0000
6060
60E0
61C0
6380
6700
6E00
7C00
7800
7C00
6E00
6700
6380
61C0
60E0
6060
0000
0000
0000
0000
0000
0000
0000
ENDCHAR

STARTCHAR C076=0x04c
ENCODING 76
SWIDTH 631 0
DWIDTH 12 0
BBX 12 24 0 -6
BITMAP
0000
0000
6000
6000
6000
6000
6000
6000
6000
6000
6000
6000
6000
6000
6000
7FE0
7FE0
0000
0000
0000
0000
0000
0000
0000
ENDCHAR

STARTCHAR C077=0x04d
ENCODING 77
SWIDTH 631 0
DWIDTH 12 0
BBX 12 24 0 -6
BITMAP
0000
0000
6060
70E0
70E0
79E0
79E0
6F60
6F60
6660
6660
6060
6060
6060
6060
6060
6060
0000
0000
0000
0000
0000
0000
0000
ENDCHAR

STARTCHAR C078=0x04e
ENCODING 78
SWIDTH 631 0
DWIDTH 12 0
BBX 12 24 0 -6
BITMAP
0000
0000
6060
7060
7060
7860
7860
6C60
6E60
6660
6760
6360
61E0
61E0
60E0
60E0
6060
0000
0000
0000
0000
0000
0000
0000
ENDCHAR

STARTCHAR C079=0x04f
ENCODING 79
SWIDTH 631 0
DWIDTH 12 0
BBX 12 24 0 -6
BITMAP
0000
0000
1F80
3FC0
70E0
6060
6060
6060
6060
6060
6060
6060
6060
6060
70E0
3FC0
1F80
0000
0000
0000
0000
0000
0000
0000
ENDCHAR

STARTCHAR C080=0x050
ENCODING 80
SWIDTH 631 0
DWIDTH 12 0
BBX 12 24 0 -6
BITMAP
0000
0000
7F80
7FC0
60E0
6060
6060
6060
60E0
7FC0
7F80
6000
6000
6000
6000
6000
6000
0000
0000
0000
0000
0000
0000
0000
ENDCHAR

STARTCHAR C081=0x051
ENCODING 81
SWIDTH 631 0
DWIDTH 12 0
BBX 12 24 0 -6
BITMAP
0000
0000
1F80
3FC0
70E0
6060
6060
6060
6060
6060
6060
6C60
6E60
6760
73E0
3FC0
1FE0
0000
0000
0000
0000
0000
0000
0000
ENDCHAR

STARTCHAR C082=0x052
ENCODING 82
SWIDTH 631 0
DWIDTH 12 0
BBX 12 24 0 -6
BITMAP
0000
0000
7F80
7FC0
60E0
6060
6060
60E0
7FC0
7F80
6380
6180
61C0
60C0
60E0
6060
6060
0000
0000
0000
0000
0000
0000
0000
ENDCHAR

STARTCHAR C083=0x053
ENCODING 83
SWIDTH 631 0
DWIDTH 12 0
BBX 12 24 0 -6
BITMAP
0000
0000
1F80
3FC0
70E0
6060
6000
7000
3F80
1FC0
00E0
0060
0060
6060
70E0
3FC0
1F80
0000
0000
0000
0000
0000
0000
0000
ENDCHAR

STARTCHAR C084=0x054
ENCODING 84
SWIDTH 631 0
DWIDTH 12 0
BBX 12 24 0 -6
BITMAP
0000
0000
7FE0
7FE0
0600
0600
0600
0600
0600
0600
0600
0600
0600
0600
0600
0600
0600
0000
0000
0000
0000
0000
0000
0000
ENDCHAR

STARTCHAR C085=0x055
ENCODING 85
SWIDTH 631 0
DWIDTH 12 0
BBX 12 24 0 -6
BITMAP
0000
0000
6060
6060
6060
6060
6060
6060
6060
6060
6060
6060
6060
6060
70E0
3FC0
1F80
0000
0000
0000
0000
0000
0000
0000
ENDCHAR

STARTCHAR C086=0x056
ENCODING 86
SWIDTH 631 0
DWIDTH 12 0
BBX 12 24 0 -6
BITMAP
0000
0000
6060
6060
6060
6060
70E0
30C0
30C0
39C0
1980
1980
1980
0F00
0F00
0600
0600
0000
0000
0000
0000
0000
0000
0000
ENDCHAR

STARTCHAR C087=0x057
ENCODING 87
SWIDTH 631 0
DWIDTH 12 0
BBX 12 24 0 -6
BITMAP
0000
0000
6060
6060
6060
6060
6060
6060
6660
6660
6F60
6F60
79E0
79E0
70E0
70E0
6060
0000
0000
0000
0000
0000
0000
0000
ENDCHAR

STARTCHAR C088=0x058
ENCODING 88
SWIDTH 631 0
DWIDTH 12 0
BBX 12 24 0 -6
BITMAP
0000
0000
6060
6060
30C0
30C0
1980
1980
0F00
0F00
0F00
1980
1980
30C0
30C0
6060
6060
0000
0000
0000
0000
0000
0000
0000
ENDCHAR

STARTCHAR C089=0x059
ENCODING 89
SWIDTH 631 0
DWIDTH 12 0
BBX 12 24 0 -6
BITMAP
0000
0000
6060
6060
70E0
30C0
39C0
1980
1F80
0F00
0600
0600
0600
0600
0600
0600
0600
0000
0000
0000
0000
0000
0000
0000
ENDCHAR

STARTCHAR C090=0x05a
ENCODING 90
SWIDTH 631 0
DWIDTH 12 0
BBX 12 24 0 -6
BITMAP
0000
0000
7FE0
7FE0
0060
00E0
01C0
0380
0700
0E00
1C00
3800
7000
6000
6000
7FE0
7FE0
0000
0000
0000
0000
0000
0000
0000
ENDCHAR

STARTCHAR C091=0x05b
ENCODING 91
SWIDTH 631 0
DWIDTH 12 0
BBX 12 24 0 -6
BITMAP
1F00
1F00
1800
1800
1800
1800
1800
1800
1800
1800
1800
1800
1800
1800
1800
1800
1800
1800
1F00
1F00
0000
0000
0000
0000
ENDCHAR

STARTCHAR C092=0x05c
ENCODING 92
SWIDTH 631 0
DWIDTH 12 0
BBX 12 24 0 -6
BITMAP
0000
0000
0000
6000
3000
3000
1800
0C00
0C00
0600
0300
0300
0180
00C0
00C0
0060
0000
0000
0000
0000
0000
0000
0000
0000
ENDCHAR

STARTCHAR C093=0x05d
ENCODING 93
SWIDTH 631 0
DWIDTH 12 0
BBX 12 24 0 -6
BITMAP
1F00
1F00
0300
0300
0300
0300
0300
0300
0300
0300
0300
0300
0300
0300
0300
0300
0300
0300
1F00
1F00
0000
0000
0000
0000
ENDCHAR

STARTCHAR C094=0x05e
ENCODING 94
SWIDTH 631 0
DWIDTH 12 0
BBX 12 24 0 -6
BITMAP
0000
0600
0F00
1980
30C0
0000
0000
0000
0000
0000
0000
0000
0000
0000
0000
0000
0000
0000
0000
0000
0000
0000
0000
0000
ENDCHAR

STARTCHAR C095=0x05f
ENCODING 95
SWIDTH 631 0
DWIDTH 12 0
BBX 12 24 0 -6
BITMAP
0000
0000
0000
0000
0000
0000
0000
0000
0000
0000
0000
0000
0000
0000
0000
7FC0
7FC0
0000
0000
0000
0000
0000
0000
0000
ENDCHAR

STARTCHAR C096=0x060
ENCODING 96
SWIDTH 631 0
DWIDTH 12 0
BBX 12 24 0 -6
BITMAP
0000
0C00
0600
0300
0000
0000
0000
0000
0000
0000
0000
0000
0000
0000
0000
0000
0000
0000
0000
0000
0000
0000
0000
0000
ENDCHAR

STARTCHAR C097=0x061
ENCODING 97
SWIDTH 631 0
DWIDTH 12 0
BBX 12 24 0 -6
BITMAP
0000
0000
0000
0000
0000
0F80
3FC0
70E0
0060
0060
1FE0
3FE0
7060
6060
61E0
7FE0
3E60
0000
0000
0000
0000
0000
0000
0000
ENDCHAR

STARTCHAR C098=0x062
ENCODING 98
SWIDTH 631 0
DWIDTH 12 0
BBX 12 24 0 -6
BITMAP
0000
0000
6000
6000
6000
6F00
7FC0
78C0
6060
6060
6060
6060
6060
6060
78C0
7FC0
6700
0000
0000
0000
0000
0000
0000
0000
ENDCHAR

STARTCHAR C099=0x063
ENCODING 99
SWIDTH 631 0
DWIDTH 12 0
BBX 12 24 0 -6
BITMAP
0000
0000
0000
0000
0000
0FC0
3FE0
3060
6000
6000
6000
6000
6000
6000
3060
3FE0
0FC0
0000
0000
0000
0000
0000
0000
0000
ENDCHAR

STARTCHAR C100=0x064
ENCODING 100
SWIDTH 631 0
DWIDTH 12 0
BBX 12 24 0 -6
BITMAP
0000
0000
0060
0060
0060
0F60
3FE0
31E0
6060
6060
6060
6060
6060
6060
31E0
3FE0
0E60
0000
0000
0000
0000
0000
0000
0000
ENDCHAR

STARTCHAR C101=0x065
ENCODING 101
SWIDTH 631 0
DWIDTH 12 0
BBX 12 24 0 -6
BITMAP
0000
0000
0000
0000
0000
0F00
3FC0
30C0
6060
6060
7FE0
7FE0
6000
6000
30C0
3FC0
0F80
0000
0000
0000
0000
0000
0000
0000
ENDCHAR

STARTCHAR C102=0x066
ENCODING 102
SWIDTH 631 0
DWIDTH 12 0
BBX 12 24 0 -6
BITMAP
0000
0000
03E0
07E0
0600
0600
7FE0
7FE0
0600
0600
0600
0600
0600
0600
0600
0600
0600
0000
0000
0000
0000
0000
0000
0000
ENDCHAR

STARTCHAR C103=0x067
ENCODING 103
SWIDTH 631 0
DWIDTH 12 0
BBX 12 24 0 -6
BITMAP
0000
0000
0000
0000
0000
1E60
3F60
71E0
60E0
6060
6060
6060
6060
6060
70E0
3FE0
1F60
0060
20E0
3FC0
1F80
0000
0000
0000
ENDCHAR

STARTCHAR C104=0x068
ENCODING 104
SWIDTH 631 0
DWIDTH 12 0
BBX 12 24 0 -6
BITMAP
0000
0000
6000
6000
6000
6F80
7FC0
7060
6060
6060
6060
6060
6060
6060
6060
6060
6060
0000
0000
0000
0000
0000
0000
0000
ENDCHAR

STARTCHAR C105=0x069
ENCODING 105
SWIDTH 631 0
DWIDTH 12 0
BBX 12 24 0 -6
BITMAP
0000
0000
0600
0600
0000
1E00
1E00
0600
0600
0600
0600
0600
0600
0600
0600
1F80
1F80
0000
0000
0000
0000
0000
0000
0000
ENDCHAR

STARTCHAR C106=0x06a
ENCODING 106
SWIDTH 631 0
DWIDTH 12 0
BBX 12 24 0 -6
BITMAP
0000
0000
0600
0600
0000
3E00
3E00
0600
0600
0600
0600
0600
0600
0600
0600
0600
0600
0600
6600
7E00
3C00
0000
0000
0000
ENDCHAR

STARTCHAR C107=0x06b
ENCODING 107
SWIDTH 631 0
DWIDTH 12 0
BBX 12 24 0 -6
BITMAP
0000
0000
6000
6000
6000
60E0
61C0
6380
6700
6E00
7C00
7C00
6E00
6700
6380
61C0
60E0
0000
0000
0000
0000
0000
0000
0000
ENDCHAR

STARTCHAR C108=0x06c
ENCODING 108
SWIDTH 631 0
DWIDTH 12 0
BBX 12 24 0 -6
BITMAP
0000
0000
0C00
0C00
0C00
0C00
0C00
0C00
0C00
0C00
0C00
0C00
0C00
0C00
0E00
07C0
03C0
0000
0000
0000
0000
0000
0000
0000
ENDCHAR

STARTCHAR C109=0x06d
ENCODING 109
SWIDTH 631 0
DWIDTH 12 0
BBX 12 24 0 -6
BITMAP
0000
0000
0000
0000
0000
7980
7FE0
6EE0
6660
6660
6660
6660
6660
6660
6660
6660
6660
0000
0000
0000
0000
0000
0000
0000
ENDCHAR

STARTCHAR C110=0x06e
ENCODING 110
SWIDTH 631 0
DWIDTH 12 0
BBX 12 24 0 -6
BITMAP
0000
0000
0000
0000
0000
6780
7FC0
78E0
6060
6060
6060
6060
6060
6060
6060
6060
6060
0000
0000
0000
0000
0000
0000
0000
ENDCHAR

STARTCHAR C111=0x06f
ENCODING 111
SWIDTH 631 0
DWIDTH 12 0
BBX 12 24 0 -6
BITMAP
0000
0000
0000
0000
0000
0F00
3FC0
30C0
6060
6060
6060
6060
6060
6060
30C0
3FC0
0F00
0000
0000
0000
0000
0000
0000
0000
ENDCHAR

STARTCHAR C112=0x070
ENCODING 112
SWIDTH 631 0
DWIDTH 12 0
BBX 12 24 0 -6
BITMAP
0000
0000
0000
0000
0000
6700
7FC0
78C0
6060
6060
6060
6060
6060
6060
78C0
7FC0
6700
6000
6000
6000
6000
0000
0000
0000
ENDCHAR

STARTCHAR C113=0x071
ENCODING 113
SWIDTH 631 0
DWIDTH 12 0
BBX 12 24 0 -6
BITMAP
0000
0000
0000
0000
0000
0E60
3FE0
31E0
6060
6060
6060
6060
6060
6060
31E0
3FE0
0E60
0060
0060
0060
0060
0000
0000
0000
ENDCHAR

STARTCHAR C114=0x072
ENCODING 114
SWIDTH 631 0
DWIDTH 12 0
BBX 12 24 0 -6
BITMAP
0000
0000
0000
0000
0000
3380
3FC0
3C60
3860
3000
3000
3000
3000
3000
3000
3000
3000
0000
0000
0000
0000
0000
0000
0000
ENDCHAR

STARTCHAR C115=0x073
ENCODING 115
SWIDTH 631 0
DWIDTH 12 0
BBX 12 24 0 -6
BITMAP
0000
0000
0000
0000
0000
1FC0
3FE0
7060
6000
7000
3F80
1FC0
00E0
0060
60E0
7FC0
3F80
0000
0000
0000
0000
0000
0000
0000
ENDCHAR

STARTCHAR C116=0x074
ENCODING 116
SWIDTH 631 0
DWIDTH 12 0
BBX 12 24 0 -6
BITMAP
0000
0000
0600
0600
0600
7FE0
7FE0
0600
0600
0600
0600
0600
0600
0600
0700
03E0
01E0
0000
0000
0000
0000
0000
0000
0000
ENDCHAR

STARTCHAR C117=0x075
ENCODING 117
SWIDTH 631 0
DWIDTH 12 0
BBX 12 24 0 -6
BITMAP
0000
0000
0000
0000
0000
6060
6060
6060
6060
6060
6060
6060
6060
61E0
73E0
3F60
1E60
0000
0000
0000
0000
0000
0000
0000
ENDCHAR

STARTCHAR C118=0x076
ENCODING 118
SWIDTH 631 0
DWIDTH 12 0
BBX 12 24 0 -6
BITMAP
0000
0000
0000
0000
0000
6060
6060
6060
6060
30C0
30C0
39C0
1980
1980
0F00
0F00
0600
0000
0000
0000
0000
0000
0000
0000
ENDCHAR

STARTCHAR C119=0x077
ENCODING 119
SWIDTH 631 0
DWIDTH 12 0
BBX 12 24 0 -6
BITMAP
0000
0000
0000
0000
0000
6060
6060
6060
6060
6060
6660
6F60
6F60
79E0
79E0
70E0
6060
0000
0000
0000
0000
0000
0000
0000
ENDCHAR

STARTCHAR C120=0x078
ENCODING 120
SWIDTH 631 0
DWIDTH 12 0
BBX 12 24 0 -6
BITMAP
0000
0000
0000
0000
0000
6060
70E0
30C0
39C0
1F80
0F00
0F00
1F80
19C0
30C0
70E0
6060
0000
0000
0000
0000
0000
0000
0000
ENDCHAR

STARTCHAR C121=0x079
ENCODING 121
SWIDTH 631 0
DWIDTH 12 0
BBX 12 24 0 -6
BITMAP
0000
0000
0000
0000
0000
6060
6060
70E0
30C0
30C0
39C0
1980
1980
0F00
0F00
0600
0600
0600
0E00
7C00
7800
0000
0000
0000
ENDCHAR

STARTCHAR C122=0x07a
ENCODING 122
SWIDTH 631 0
DWIDTH 12 0
BBX 12 24 0 -6
BITMAP
0000
0000
0000
0000
0000
7FE0
7FE0
0060
00C0
0180
0300
0600
0C00
1800
3000
7FE0
7FE0
0000
0000
0000
0000
0000
0000
0000
ENDCHAR

STARTCHAR C123=0x07b
ENCODING 123
SWIDTH 631 0
DWIDTH 12 0
BBX 12 24 0 -6
BITMAP
0700
0F00
0C00
0C00
0C00
0C00
0C00
0C00
7800
7800
0C00
0C00
0C00
0C00
0C00
0C00
0C00
0F00
0700
0000
0000
0000
0000
0000
ENDCHAR

STARTCHAR C124=0x07c
ENCODING 124
SWIDTH 631 0
DWIDTH 12 0
BBX 12 24 0 -6
BITMAP
0000
0000
0C00
0C00
0C00
0C00
0C00
0C00
0C00
0C00
0C00
0C00
0C00
0C00
0C00
0C00
0C00
0000
0000
0000
0000
0000
0000
0000
ENDCHAR

STARTCHAR C125=0x07d
ENCODING 125
SWIDTH 631 0
DWIDTH 12 0
BBX 12 24 0 -6
BITMAP
3800
3C00
0C00
0C00
0C00
0C00
0C00
0C00
0F80
0F80
0C00
0C00
0C00
0C00
0C00
0C00
0C00
3C00
3800
0000
0000
0000
0000
0000
ENDCHAR

STARTCHAR C253=0x0fd
ENCODING 126
SWIDTH 631 0
DWIDTH 12 0
BBX 12 24 0 -6
BITMAP
0000
1C60
3EE0
77C0
6380
0000
0000
0000
0000
0000
0000
0000
0000
0000
0000
0000
0000
0000
0000
0000
0000
0000
0000
0000
ENDCHAR

STARTCHAR C127=0x07f
ENCODING 127
SWIDTH 631 0
DWIDTH 12 0
BBX 12 24 0 -6
BITMAP
0000
0000
0000
0000
0000
0000
6660
6660
1980
1980
6660
6660
1980
1980
6660
6660
0000
0000
0000
0000
0000
0000
0000
0000
ENDCHAR

STARTCHAR C768=0x300
ENCODING 128
SWIDTH 500 0
DWIDTH 12 0
BBX 12 24 0 -6
BITMAP
0600
0600
0600
0600
0600
0600
0600
0600
0600
0600
0600
0600
0600
0600
0600
0600
0600
0600
0600
0600
0600
0600
0600
0600
ENDCHAR

STARTCHAR C769=0x301
ENCODING 129
SWIDTH 500 0
DWIDTH 12 0
BBX 12 24 0 -6
BITMAP
0000
0000
0000
0000
0000
0000
0000
0000
0000
0000
0000
FFF0
FFF0
0000
0000
0000
0000
0000
0000
0000
0000
0000
0000
0000
ENDCHAR

STARTCHAR C770=0x302
ENCODING 130
SWIDTH 500 0
DWIDTH 12 0
BBX 12 24 0 -6
BITMAP
0000
0000
0000
0000
0000
0000
0000
0000
0000
0000
0000
07F0
07F0
0600
0600
0600
0600
0600
0600
0600
0600
0600
0600
0600
ENDCHAR

STARTCHAR C771=0x303
ENCODING 131
SWIDTH 500 0
DWIDTH 12 0
BBX 12 24 0 -6
BITMAP
0000
0000
0000
0000
0000
0000
0000
0000
0000
0000
0000
FE00
FE00
0600
0600
0600
0600
0600
0600
0600
0600
0600
0600
0600
ENDCHAR

STARTCHAR C772=0x304
ENCODING 132
SWIDTH 500 0
DWIDTH 12 0
BBX 12 24 0 -6
BITMAP
0600
0600
0600
0600
0600
0600
0600
0600
0600
0600
0600
07F0
07F0
0000
0000
0000
0000
0000
0000
0000
0000
0000
0000
0000
ENDCHAR

STARTCHAR C773=0x305
ENCODING 133
SWIDTH 500 0
DWIDTH 12 0
BBX 12 24 0 -6
BITMAP
0600
0600
0600
0600
0600
0600
0600
0600
0600
0600
0600
FE00
FE00
0000
0000
0000
0000
0000
0000
0000
0000
0000
0000
0000
ENDCHAR

STARTCHAR C774=0x306
ENCODING 134
SWIDTH 500 0
DWIDTH 12 0
BBX 12 24 0 -6
BITMAP
0600
0600
0600
0600
0600
0600
0600
0600
0600
0600
0600
07F0
07F0
0600
0600
0600
0600
0600
0600
0600
0600
0600
0600
0600
ENDCHAR

STARTCHAR C775=0x307
ENCODING 135
SWIDTH 500 0
DWIDTH 12 0
BBX 12 24 0 -6
BITMAP
0600
0600
0600
0600
0600
0600
0600
0600
0600
0600
0600
FE00
FE00
0600
0600
0600
0600
0600
0600
0600
0600
0600
0600
0600
ENDCHAR

STARTCHAR C776=0x308
ENCODING 136
SWIDTH 500 0
DWIDTH 12 0
BBX 12 24 0 -6
BITMAP
0000
0000
0000
0000
0000
0000
0000
0000
0000
0000
0000
FFF0
FFF0
0600
0600
0600
0600
0600
0600
0600
0600
0600
0600
0600
ENDCHAR

STARTCHAR C777=0x309
ENCODING 137
SWIDTH 500 0
DWIDTH 12 0
BBX 12 24 0 -6
BITMAP
0600
0600
0600
0600
0600
0600
0600
0600
0600
0600
0600
FFF0
FFF0
0000
0000
0000
0000
0000
0000
0000
0000
0000
0000
0000
ENDCHAR

STARTCHAR C778=0x30a
ENCODING 138
SWIDTH 500 0
DWIDTH 12 0
BBX 12 24 0 -6
BITMAP
0600
0600
0600
0600
0600
0600
0600
0600
0600
0600
0600
FFF0
FFF0
0600
0600
0600
0600
0600
0600
0600
0600
0600
0600
0600
ENDCHAR

STARTCHAR C779=0x30b
ENCODING 139
SWIDTH 500 0
DWIDTH 12 0
BBX 12 24 0 -6
BITMAP
0000
0000
0000
0000
0000
0000
0000
0000
0000
0000
0000
0000
0000
0000
0000
0000
0000
0000
0000
0000
0000
FFF0
FFF0
0000
ENDCHAR

STARTCHAR C780=0x30c
ENCODING 140
SWIDTH 500 0
DWIDTH 12 0
BBX 12 24 0 -6
BITMAP
0000
0000
0000
30C0
30C0
6060
6060
6060
30C0
3FC0
0F00
0000
0000
39C0
7FE0
6660
6660
6660
6660
7FE0
39C0
0000
0000
0000
ENDCHAR

STARTCHAR C781=0x30d
ENCODING 141
SWIDTH 500 0
DWIDTH 12 0
BBX 12 24 0 -6
BITMAP
0000
0000
0000
0F00
3FC0
30C0
6060
6060
6060
7FE0
7FE0
0000
0000
39C0
7FE0
6660
6660
6660
6660
7FE0
39C0
0000
0000
0000
ENDCHAR

STARTCHAR C782=0x30e
ENCODING 142
SWIDTH 500 0
DWIDTH 12 0
BBX 12 24 0 -6
BITMAP
0000
0000
0000
6060
6060
6660
6660
6660
6660
7FE0
7FE0
0000
0000
39C0
7FE0
6660
6660
6660
6660
7FE0
39C0
0000
0000
0000
ENDCHAR

STARTCHAR C783=0x30f
ENCODING 143
SWIDTH 500 0
DWIDTH 12 0
BBX 12 24 0 -6
BITMAP
0000
0000
0000
6000
6000
6600
6600
6600
6600
7FE0
7FE0
0000
0000
39C0
7FE0
6660
6660
6660
6660
7FE0
39C0
0000
0000
0000
ENDCHAR

STARTCHAR C784=0x310
ENCODING 144
SWIDTH 500 0
DWIDTH 12 0
BBX 12 24 0 -6
BITMAP
0000
0000
0000
0F00
3FC0
30C0
6660
6660
30C0
3FC0
0F00
0000
0000
3FC0
7FE0
6660
6660
6660
6660
7C60
3860
0000
0000
0000
ENDCHAR

STARTCHAR C785=0x311
ENCODING 145
SWIDTH 631 0
DWIDTH 12 0
BBX 12 24 0 -6
BITMAP
0000
0000
0000
0000
0060
7FE0
7FE0
3860
1C00
0E00
0600
0000
0000
3FC0
7FE0
6660
6660
6660
6660
7C60
3860
0000
0000
0000
ENDCHAR

STARTCHAR C786=0x312
ENCODING 146
SWIDTH 631 0
DWIDTH 12 0
BBX 12 24 0 -6
BITMAP
0000
0000
0000
3C60
7E60
6660
6660
6660
6760
33E0
31E0
0000
0000
3FC0
7FE0
6660
6660
6660
6660
7C60
3860
0000
0000
0000
ENDCHAR

STARTCHAR C787=0x313
ENCODING 147
SWIDTH 631 0
DWIDTH 12 0
BBX 12 24 0 -6
BITMAP
0000
0000
0000
39C0
7FE0
6660
6660
6660
6060
30C0
30C0
0000
0000
3FC0
7FE0
6660
6660
6660
6660
7C60
3860
0000
0000
0000
ENDCHAR

STARTCHAR C788=0x314
ENCODING 148
SWIDTH 631 0
DWIDTH 12 0
BBX 12 24 0 -6
BITMAP
0000
0000
0000
0300
0FE0
4FE0
6300
7300
3B00
1F00
0F00
0000
0000
3FC0
7FE0
6660
6660
6660
6660
7C60
3860
0000
0000
0000
ENDCHAR

STARTCHAR C789=0x315
ENCODING 149
SWIDTH 631 0
DWIDTH 12 0
BBX 12 24 0 -6
BITMAP
0000
0000
0000
03C0
67E0
6660
6660
6660
6660
7E60
7E60
0000
0000
3FC0
7FE0
6660
6660
6660
6660
7C60
3860
0000
0000
0000
ENDCHAR

STARTCHAR C790=0x316
ENCODING 150
SWIDTH 631 0
DWIDTH 12 0
BBX 12 24 0 -6
BITMAP
0000
0000
0000
01C0
67E0
6660
6660
6660
6660
3FC0
3FC0
0000
0000
3FC0
7FE0
6660
6660
6660
6660
7C60
3860
0000
0000
0000
ENDCHAR

STARTCHAR C791=0x317
ENCODING 151
SWIDTH 631 0
DWIDTH 12 0
BBX 12 24 0 -6
BITMAP
0000
0000
0000
7800
7C00
6E00
6700
6380
61C0
60E0
6060
0000
0000
3FC0
7FE0
6660
6660
6660
6660
7C60
3860
0000
0000
0000
ENDCHAR

STARTCHAR C792=0x318
ENCODING 152
SWIDTH 631 0
DWIDTH 12 0
BBX 12 24 0 -6
BITMAP
0000
0000
0000
39C0
7FE0
6660
6660
6660
6660
7FE0
39C0
0000
0000
3FC0
7FE0
6660
6660
6660
6660
7C60
3860
0000
0000
0000
ENDCHAR

STARTCHAR C793=0x319
ENCODING 153
SWIDTH 631 0
DWIDTH 12 0
BBX 12 24 0 -6
BITMAP
0000
0000
0000
3FC0
7FE0
6660
6660
6660
6660
7C60
3860
0000
0000
3FC0
7FE0
6660
6660
6660
6660
7C60
3860
0000
0000
0000
ENDCHAR

STARTCHAR C794=0x31a
ENCODING 154
SWIDTH 631 0
DWIDTH 12 0
BBX 12 24 0 -6
BITMAP
0000
0000
0000
3FE0
7FE0
6600
6600
6600
6600
7FE0
3FE0
0000
0000
3FC0
7FE0
6660
6660
6660
6660
7C60
3860
0000
0000
0000
ENDCHAR

STARTCHAR C795=0x31b
ENCODING 155
SWIDTH 631 0
DWIDTH 12 0
BBX 12 24 0 -6
BITMAP
0000
0000
0000
1980
7FE0
6660
6660
6660
6660
7FE0
7FE0
0000
0000
3FC0
7FE0
6660
6660
6660
6660
7C60
3860
0000
0000
0000
ENDCHAR

STARTCHAR C796=0x31c
ENCODING 156
SWIDTH 631 0
DWIDTH 12 0
BBX 12 24 0 -6
BITMAP
0000
0000
0000
30C0
30C0
6060
6060
6060
30C0
3FC0
0F00
0000
0000
3FC0
7FE0
6660
6660
6660
6660
7C60
3860
0000
0000
0000
ENDCHAR

STARTCHAR C797=0x31d
ENCODING 157
SWIDTH 631 0
DWIDTH 12 0
BBX 12 24 0 -6
BITMAP
0000
0000
0000
0F00
3FC0
30C0
6060
6060
6060
7FE0
7FE0
0000
0000
3FC0
7FE0
6660
6660
6660
6660
7C60
3860
0000
0000
0000
ENDCHAR

STARTCHAR C798=0x31e
ENCODING 158
SWIDTH 631 0
DWIDTH 12 0
BBX 12 24 0 -6
BITMAP
0000
0000
0000
6060
6060
6660
6660
6660
6660
7FE0
7FE0
0000
0000
3FC0
7FE0
6660
6660
6660
6660
7C60
3860
0000
0000
0000
ENDCHAR

STARTCHAR C799=0x31f
ENCODING 159
SWIDTH 631 0
DWIDTH 12 0
BBX 12 24 0 -6
BITMAP
0000
0000
0000
6000
6000
6600
6600
6600
6600
7FE0
7FE0
0000
0000
3FC0
7FE0
6660
6660
6660
6660
7C60
3860
0000
0000
0000
ENDCHAR

STARTCHAR C032=0x020
ENCODING 160
SWIDTH 631 0
DWIDTH 12 0
BBX 12 24 0 -6
BITMAP
0000
0000
0000
0000
0000
0000
0000
0000
0000
0000
0000
0000
0000
0000
0000
0000
0000
0000
0000
0000
0000
0000
0000
0000
ENDCHAR

STARTCHAR C480=0x1e0
ENCODING 161
SWIDTH 631 0
DWIDTH 12 0
BBX 12 24 0 -6
BITMAP
0000
0000
0C00
0C00
0000
0000
0C00
0C00
0C00
0C00
0C00
0C00
0C00
0C00
0C00
0C00
0C00
0000
0000
0000
0000
0000
0000
0000
ENDCHAR

STARTCHAR C481=0x1e1
ENCODING 162
SWIDTH 631 0
DWIDTH 12 0
BBX 12 24 0 -6
BITMAP
0000
0000
0000
0600
0600
0FC0
3FE0
3660
6600
6600
6600
6600
6600
6600
3660
3FE0
0FC0
0600
0600
0000
0000
0000
0000
0000
ENDCHAR

STARTCHAR C238=0x0ee
ENCODING 163
SWIDTH 631 0
DWIDTH 12 0
BBX 12 24 0 -6
BITMAP
01E0
03E0
0700
0600
0600
1F80
1F80
0600
0600
0600
0600
0600
3E00
7F80
67C0
7EE0
3C60
0000
0000
0000
0000
0000
0000
0000
ENDCHAR

STARTCHAR C036=0x024
ENCODING 164
SWIDTH 631 0
DWIDTH 12 0
BBX 12 24 0 -6
BITMAP
0000
0000
0000
6060
70E0
39C0
1F80
1F80
39C0
30C0
30C0
39C0
1F80
1F80
39C0
70E0
6060
0000
0000
0000
0000
0000
0000
0000
ENDCHAR

STARTCHAR C482=0x1e2
ENCODING 165
SWIDTH 631 0
DWIDTH 12 0
BBX 12 24 0 -6
BITMAP
0000
0000
6060
6060
70E0
30C0
39C0
1980
1F80
0F00
0600
0600
3FC0
3FC0
0600
0600
0600
0000
0000
0000
0000
0000
0000
0000
ENDCHAR

STARTCHAR C672=0x2a0
ENCODING 166
SWIDTH 631 0
DWIDTH 12 0
BBX 12 24 0 -6
BITMAP
0000
0000
0600
0600
0600
0600
0600
0600
0600
0000
0600
0600
0600
0600
0600
0600
0600
0000
0000
0000
0000
0000
0000
0000
ENDCHAR

STARTCHAR C236=0x0ec
ENCODING 167
SWIDTH 631 0
DWIDTH 12 0
BBX 12 24 0 -6
BITMAP
0000
0000
0FC0
1FE0
3860
3800
1F80
1FC0
38E0
3060
38E0
1FC0
0FE0
0060
30E0
3FC0
1F80
0000
0000
0000
0000
0000
0000
0000
ENDCHAR

STARTCHAR C249=0x0f9
ENCODING 168
SWIDTH 631 0
DWIDTH 12 0
BBX 12 24 0 -6
BITMAP
0000
30C0
30C0
0000
0000
0000
0000
0000
0000
0000
0000
0000
0000
0000
0000
0000
0000
0000
0000
0000
0000
0000
0000
0000
ENDCHAR

STARTCHAR C240=0x0f0
ENCODING 169
SWIDTH 631 0
DWIDTH 12 0
BBX 12 24 0 -6
BITMAP
0000
0000
1F80
3FC0
70E0
6660
6F60
6960
6860
6860
6860
6960
6F60
6660
70E0
3FC0
1F80
0000
0000
0000
0000
0000
0000
0000
ENDCHAR

STARTCHAR C500=0x1f4
ENCODING 170
SWIDTH 631 0
DWIDTH 12 0
BBX 12 24 0 -6
BITMAP
0000
0000
0000
0000
0000
1F80
3FC0
30C0
00C0
1FC0
3FC0
30C0
3FC0
1FC0
0000
3FC0
3FC0
0000
0000
0000
0000
0000
0000
0000
ENDCHAR

STARTCHAR C483=0x1e3
ENCODING 171
SWIDTH 631 0
DWIDTH 12 0
BBX 12 24 0 -6
BITMAP
0000
0000
0000
0000
0000
0000
0000
0CC0
1980
3300
6600
6600
3300
1980
0CC0
0000
0000
0000
0000
0000
0000
0000
0000
0000
ENDCHAR

STARTCHAR C545=0x221
ENCODING 172
SWIDTH 631 0
DWIDTH 12 0
BBX 12 24 0 -6
BITMAP
0000
0000
7FE0
7FE0
0060
0060
0060
0000
0000
0000
0000
0000
0000
0000
0000
0000
0000
0000
0000
0000
0000
0000
0000
0000
ENDCHAR

STARTCHAR C045=0x02d
ENCODING 173
SWIDTH 631 0
DWIDTH 12 0
BBX 12 24 0 -6
BITMAP
0000
0000
0000
0000
0000
0000
0000
0000
0000
3FC0
3FC0
0000
0000
0000
0000
0000
0000
0000
0000
0000
0000
0000
0000
0000
ENDCHAR

STARTCHAR C239=0x0ef
ENCODING 174
SWIDTH 631 0
DWIDTH 12 0
BBX 12 24 0 -6
BITMAP
0000
0000
1F80
3FC0
70E0
6E60
6960
6960
6960
6E60
6A60
6A60
6960
6960
70E0
3FC0
1F80
0000
0000
0000
0000
0000
0000
0000
ENDCHAR

STARTCHAR C126=0x07e
ENCODING 175
SWIDTH 631 0
DWIDTH 12 0
BBX 12 24 0 -6
BITMAP
0000
0000
7FC0
7FC0
0000
0000
0000
0000
0000
0000
0000
0000
0000
0000
0000
0000
0000
0000
0000
0000
0000
0000
0000
0000
ENDCHAR

STARTCHAR C243=0x0f3
ENCODING 176
SWIDTH 631 0
DWIDTH 12 0
BBX 12 24 0 -6
BITMAP
0000
0E00
1B00
1100
1B00
0E00
0000
0000
0000
0000
0000
0000
0000
0000
0000
0000
0000
0000
0000
0000
0000
0000
0000
0000
ENDCHAR

STARTCHAR C485=0x1e5
ENCODING 177
SWIDTH 631 0
DWIDTH 12 0
BBX 12 24 0 -6
BITMAP
0000
0000
0000
0000
0000
0600
0600
0600
7FE0
7FE0
0600
0600
0600
0000
0000
7FE0
7FE0
0000
0000
0000
0000
0000
0000
0000
ENDCHAR

STARTCHAR C258=0x102
ENCODING 178
SWIDTH 631 0
DWIDTH 12 0
BBX 12 24 0 -6
BITMAP
0000
0000
07C0
0FE0
0860
01C0
0380
0600
0FE0
0FE0
0000
0000
0000
0000
0000
0000
0000
0000
0000
0000
0000
0000
0000
0000
ENDCHAR

STARTCHAR C259=0x103
ENCODING 179
SWIDTH 631 0
DWIDTH 12 0
BBX 12 24 0 -6
BITMAP
0000
0000
07C0
0FE0
0060
01C0
01C0
0060
0FE0
07C0
0000
0000
0000
0000
0000
0000
0000
0000
0000
0000
0000
0000
0000
0000
ENDCHAR

STARTCHAR C248=0x0f8
ENCODING 180
SWIDTH 631 0
DWIDTH 12 0
BBX 12 24 0 -6
BITMAP
0000
0300
0600
0C00
0000
0000
0000
0000
0000
0000
0000
0000
0000
0000
0000
0000
0000
0000
0000
0000
0000
0000
0000
0000
ENDCHAR

STARTCHAR C242=0x0f2
ENCODING 181
SWIDTH 631 0
DWIDTH 12 0
BBX 12 24 0 -6
BITMAP
0000
0000
0000
0000
0000
60C0
60C0
60C0
60C0
60C0
60C0
60C0
60C0
60C0
71C0
7FE0
6E60
6000
6000
6000
6000
6000
0000
0000
ENDCHAR

STARTCHAR C148=0x094
ENCODING 182
SWIDTH 631 0
DWIDTH 12 0
BBX 12 24 0 -6
BITMAP
0000
0000
3FE0
7FE0
6CC0
6CC0
6CC0
3CC0
1CC0
0CC0
0CC0
0CC0
0CC0
0CC0
0CC0
0CC0
0CC0
0000
0000
0000
0000
0000
0000
0000
ENDCHAR

STARTCHAR C550=0x226
ENCODING 183
SWIDTH 631 0
DWIDTH 12 0
BBX 12 24 0 -6
BITMAP
0000
0000
0000
0000
0000
0000
0000
0E00
0E00
0E00
0000
0000
0000
0000
0000
0000
0000
0000
0000
0000
0000
0000
0000
0000
ENDCHAR

STARTCHAR C551=0x227
ENCODING 184
SWIDTH 631 0
DWIDTH 12 0
BBX 12 24 0 -6
BITMAP
0000
0000
0000
0000
0000
0000
0000
0000
0000
0000
0000
0000
0000
0000
0000
0000
0000
0300
0180
30C0
3FC0
1F80
0000
0000
ENDCHAR

STARTCHAR C257=0x101
ENCODING 185
SWIDTH 631 0
DWIDTH 12 0
BBX 12 24 0 -6
BITMAP
0000
0000
0180
0380
0780
0580
0180
0180
07E0
07E0
0000
0000
0000
0000
0000
0000
0000
0000
0000
0000
0000
0000
0000
0000
ENDCHAR

STARTCHAR C505=0x1f9
ENCODING 186
SWIDTH 631 0
DWIDTH 12 0
BBX 12 24 0 -6
BITMAP
0000
0000
0000
0000
0000
0F00
1F80
39C0
30C0
30C0
30C0
39C0
1F80
0F00
0000
3FC0
3FC0
0000
0000
0000
0000
0000
0000
0000
ENDCHAR

STARTCHAR C484=0x1e4
ENCODING 187
SWIDTH 631 0
DWIDTH 12 0
BBX 12 24 0 -6
BITMAP
0000
0000
0000
0000
0000
0000
0000
3300
1980
0CC0
0660
0660
0CC0
1980
3300
0000
0000
0000
0000
0000
0000
0000
0000
0000
ENDCHAR

STARTCHAR C488=0x1e8
ENCODING 188
SWIDTH 631 0
DWIDTH 12 0
BBX 12 24 0 -6
BITMAP
0C00
1C00
3C00
6C00
0C60
0CC0
0D80
0F00
0600
0D80
1B80
3700
6E00
0D80
0FC0
0FC0
0180
0180
0000
0000
0000
0000
0000
0000
ENDCHAR

STARTCHAR C489=0x1e9
ENCODING 189
SWIDTH 631 0
DWIDTH 12 0
BBX 12 24 0 -6
BITMAP
0C00
1C00
3C00
6C00
0C60
0CC0
0D80
0F00
0600
0C00
1BC0
37E0
6460
00C0
0180
0300
07E0
07E0
0000
0000
0000
0000
0000
0000
ENDCHAR

STARTCHAR C490=0x1ea
ENCODING 190
SWIDTH 631 0
DWIDTH 12 0
BBX 12 24 0 -6
BITMAP
3C00
7E00
6600
0600
0C60
06C0
6780
7F00
3E00
0D80
1B80
3700
6E00
0D80
0FC0
0FC0
0180
0180
0000
0000
0000
0000
0000
0000
ENDCHAR

STARTCHAR C491=0x1eb
ENCODING 191
SWIDTH 631 0
DWIDTH 12 0
BBX 12 24 0 -6
BITMAP
0000
0000
0600
0600
0000
0000
0600
0600
0C00
1800
3000
6000
6040
60C0
33C0
3F80
0E00
0000
0000
0000
0000
0000
0000
0000
ENDCHAR

STARTCHAR C553=0x229
ENCODING 192
SWIDTH 631 0
DWIDTH 12 0
BBX 12 24 0 -6
BITMAP
0C00
0600
0300
0600
0F00
1F80
39C0
70E0
6060
6060
6060
7FE0
7FE0
6060
6060
6060
6060
0000
0000
0000
0000
0000
0000
0000
ENDCHAR

STARTCHAR C554=0x22a
ENCODING 193
SWIDTH 631 0
DWIDTH 12 0
BBX 12 24 0 -6
BITMAP
0300
0600
0C00
0600
0F00
1F80
39C0
70E0
6060
6060
6060
7FE0
7FE0
6060
6060
6060
6060
0000
0000
0000
0000
0000
0000
0000
ENDCHAR

STARTCHAR C555=0x22b
ENCODING 194
SWIDTH 631 0
DWIDTH 12 0
BBX 12 24 0 -6
BITMAP
0600
0F00
1980
0600
0F00
1F80
39C0
70E0
6060
6060
6060
7FE0
7FE0
6060
6060
6060
6060
0000
0000
0000
0000
0000
0000
0000
ENDCHAR

STARTCHAR C556=0x22c
ENCODING 195
SWIDTH 631 0
DWIDTH 12 0
BBX 12 24 0 -6
BITMAP
1C60
36C0
6380
0600
0F00
1F80
39C0
70E0
6060
6060
6060
7FE0
7FE0
6060
6060
6060
6060
0000
0000
0000
0000
0000
0000
0000
ENDCHAR

STARTCHAR C233=0x0e9
ENCODING 196
SWIDTH 631 0
DWIDTH 12 0
BBX 12 24 0 -6
BITMAP
0000
30C0
30C0
0600
0F00
1F80
39C0
70E0
6060
6060
6060
7FE0
7FE0
6060
6060
6060
6060
0000
0000
0000
0000
0000
0000
0000
ENDCHAR

STARTCHAR C224=0x0e0
ENCODING 197
SWIDTH 631 0
DWIDTH 12 0
BBX 12 24 0 -6
BITMAP
0F00
1980
1980
0F00
0F00
1F80
39C0
70E0
6060
6060
6060
7FE0
7FE0
6060
6060
6060
6060
0000
0000
0000
0000
0000
0000
0000
ENDCHAR

STARTCHAR C225=0x0e1
ENCODING 198
SWIDTH 631 0
DWIDTH 12 0
BBX 12 24 0 -6
BITMAP
0000
0000
0FE0
1FE0
3B00
7300
6300
6300
6300
7FC0
7FC0
6300
6300
6300
6300
63E0
63E0
0000
0000
0000
0000
0000
0000
0000
ENDCHAR

STARTCHAR C244=0x0f4
ENCODING 199
SWIDTH 631 0
DWIDTH 12 0
BBX 12 24 0 -6
BITMAP
0000
0000
0000
1F00
3F80
71C0
60C0
6000
6000
6000
6000
6000
6000
60C0
71C0
3F80
1F00
0300
0180
00C0
0FC0
0F80
0000
0000
ENDCHAR

STARTCHAR C557=0x22d
ENCODING 200
SWIDTH 631 0
DWIDTH 12 0
BBX 12 24 0 -6
BITMAP
0C00
0600
0300
7FE0
7FE0
6000
6000
6000
6000
7F80
7F80
6000
6000
6000
6000
7FE0
7FE0
0000
0000
0000
0000
0000
0000
0000
ENDCHAR

STARTCHAR C223=0x0df
ENCODING 201
SWIDTH 631 0
DWIDTH 12 0
BBX 12 24 0 -6
BITMAP
0300
0600
0C00
7FE0
7FE0
6000
6000
6000
6000
7F80
7F80
6000
6000
6000
6000
7FE0
7FE0
0000
0000
0000
0000
0000
0000
0000
ENDCHAR

STARTCHAR C558=0x22e
ENCODING 202
SWIDTH 631 0
DWIDTH 12 0
BBX 12 24 0 -6
BITMAP
0600
0F00
1980
7FE0
7FE0
6000
6000
6000
6000
7F80
7F80
6000
6000
6000
6000
7FE0
7FE0
0000
0000
0000
0000
0000
0000
0000
ENDCHAR

STARTCHAR C559=0x22f
ENCODING 203
SWIDTH 631 0
DWIDTH 12 0
BBX 12 24 0 -6
BITMAP
30C0
30C0
0000
7FE0
7FE0
6000
6000
6000
6000
7F80
7F80
6000
6000
6000
6000
7FE0
7FE0
0000
0000
0000
0000
0000
0000
0000
ENDCHAR

STARTCHAR C560=0x230
ENCODING 204
SWIDTH 631 0
DWIDTH 12 0
BBX 12 24 0 -6
BITMAP
0C00
0600
0300
3FC0
3FC0
0600
0600
0600
0600
0600
0600
0600
0600
0600
0600
3FC0
3FC0
0000
0000
0000
0000
0000
0000
0000
ENDCHAR

STARTCHAR C561=0x231
ENCODING 205
SWIDTH 631 0
DWIDTH 12 0
BBX 12 24 0 -6
BITMAP
0300
0600
0C00
3FC0
3FC0
0600
0600
0600
0600
0600
0600
0600
0600
0600
0600
3FC0
3FC0
0000
0000
0000
0000
0000
0000
0000
ENDCHAR

STARTCHAR C562=0x232
ENCODING 206
SWIDTH 631 0
DWIDTH 12 0
BBX 12 24 0 -6
BITMAP
0600
0F00
1980
3FC0
3FC0
0600
0600
0600
0600
0600
0600
0600
0600
0600
0600
3FC0
3FC0
0000
0000
0000
0000
0000
0000
0000
ENDCHAR

STARTCHAR C563=0x233
ENCODING 207
SWIDTH 631 0
DWIDTH 12 0
BBX 12 24 0 -6
BITMAP
30C0
30C0
0000
3FC0
3FC0
0600
0600
0600
0600
0600
0600
0600
0600
0600
0600
3FC0
3FC0
0000
0000
0000
0000
0000
0000
0000
ENDCHAR

STARTCHAR C226=0x0e2
ENCODING 208
SWIDTH 631 0
DWIDTH 12 0
BBX 12 24 0 -6
BITMAP
0000
0000
0000
3F80
3FC0
30E0
3060
3060
3060
7C60
7C60
3060
3060
3060
30E0
3FC0
3F80
0000
0000
0000
0000
0000
0000
0000
ENDCHAR

STARTCHAR C250=0x0fa
ENCODING 209
SWIDTH 631 0
DWIDTH 12 0
BBX 12 24 0 -6
BITMAP
1C60
36C0
0380
7060
7060
7860
7C60
6C60
6E60
6660
6760
6360
63E0
61E0
60E0
60E0
6060
0000
0000
0000
0000
0000
0000
0000
ENDCHAR

STARTCHAR C564=0x234
ENCODING 210
SWIDTH 631 0
DWIDTH 12 0
BBX 12 24 0 -6
BITMAP
1800
0C00
0600
1F80
3FC0
70E0
6060
6060
6060
6060
6060
6060
6060
6060
70E0
3FC0
1F80
0000
0000
0000
0000
0000
0000
0000
ENDCHAR

STARTCHAR C565=0x235
ENCODING 211
SWIDTH 631 0
DWIDTH 12 0
BBX 12 24 0 -6
BITMAP
0180
0300
0600
1F80
3FC0
70E0
6060
6060
6060
6060
6060
6060
6060
6060
70E0
3FC0
1F80
0000
0000
0000
0000
0000
0000
0000
ENDCHAR

STARTCHAR C566=0x236
ENCODING 212
SWIDTH 631 0
DWIDTH 12 0
BBX 12 24 0 -6
BITMAP
0600
0F00
1980
1F80
3FC0
70E0
6060
6060
6060
6060
6060
6060
6060
6060
70E0
3FC0
1F80
0000
0000
0000
0000
0000
0000
0000
ENDCHAR

STARTCHAR C567=0x237
ENCODING 213
SWIDTH 631 0
DWIDTH 12 0
BBX 12 24 0 -6
BITMAP
1C60
36C0
6380
1F80
3FC0
70E0
6060
6060
6060
6060
6060
6060
6060
6060
70E0
3FC0
1F80
0000
0000
0000
0000
0000
0000
0000
ENDCHAR

STARTCHAR C234=0x0ea
ENCODING 214
SWIDTH 631 0
DWIDTH 12 0
BBX 12 24 0 -6
BITMAP
30C0
30C0
0000
1F80
3FC0
70E0
6060
6060
6060
6060
6060
6060
6060
6060
70E0
3FC0
1F80
0000
0000
0000
0000
0000
0000
0000
ENDCHAR

STARTCHAR C486=0x1e6
ENCODING 215
SWIDTH 631 0
DWIDTH 12 0
BBX 12 24 0 -6
BITMAP
0000
0000
0000
0000
0000
0000
0000
60C0
3180
1B00
0E00
0400
0E00
1B00
3180
60C0
0000
0000
0000
0000
0000
0000
0000
0000
ENDCHAR

STARTCHAR C230=0x0e6
ENCODING 216
SWIDTH 631 0
DWIDTH 12 0
BBX 12 24 0 -6
BITMAP
0000
0000
1F60
3FE0
71C0
61E0
6360
6360
6660
6660
6C60
6C60
7860
7860
30E0
7FC0
6F80
0000
0000
0000
0000
0000
0000
0000
ENDCHAR

STARTCHAR C568=0x238
ENCODING 217
SWIDTH 631 0
DWIDTH 12 0
BBX 12 24 0 -6
BITMAP
0C00
0600
0300
6060
6060
6060
6060
6060
6060
6060
6060
6060
6060
6060
70E0
3FC0
1F80
0000
0000
0000
0000
0000
0000
0000
ENDCHAR

STARTCHAR C569=0x239
ENCODING 218
SWIDTH 631 0
DWIDTH 12 0
BBX 12 24 0 -6
BITMAP
0300
0600
0C00
6060
6060
6060
6060
6060
6060
6060
6060
6060
6060
6060
70E0
3FC0
1F80
0000
0000
0000
0000
0000
0000
0000
ENDCHAR

STARTCHAR C570=0x23a
ENCODING 219
SWIDTH 631 0
DWIDTH 12 0
BBX 12 24 0 -6
BITMAP
0600
0F00
1980
6060
6060
6060
6060
6060
6060
6060
6060
6060
6060
6060
70E0
3FC0
1F80
0000
0000
0000
0000
0000
0000
0000
ENDCHAR

STARTCHAR C235=0x0eb
ENCODING 220
SWIDTH 631 0
DWIDTH 12 0
BBX 12 24 0 -6
BITMAP
30C0
30C0
0000
6060
6060
6060
6060
6060
6060
6060
6060
6060
6060
6060
70E0
3FC0
1F80
0000
0000
0000
0000
0000
0000
0000
ENDCHAR

STARTCHAR C571=0x23b
ENCODING 221
SWIDTH 631 0
DWIDTH 12 0
BBX 12 24 0 -6
BITMAP
0300
0600
0C00
6060
30C0
30C0
1980
1980
0F00
0F00
0600
0600
0600
0600
0600
0600
0600
0000
0000
0000
0000
0000
0000
0000
ENDCHAR

STARTCHAR C232=0x0e8
ENCODING 222
SWIDTH 631 0
DWIDTH 12 0
BBX 12 24 0 -6
BITMAP
6000
6000
7F00
7F80
61C0
60C0
60C0
60C0
61C0
7F80
7F00
6000
6000
6000
6000
6000
6000
0000
0000
0000
0000
0000
0000
0000
ENDCHAR

STARTCHAR C209=0x0d1
ENCODING 223
SWIDTH 631 0
DWIDTH 12 0
BBX 12 24 0 -6
BITMAP
0000
0000
0700
1F80
18C0
30C0
30C0
3180
3700
3780
31C0
3060
3060
3060
30E0
37C0
3700
3000
3000
3000
3000
0000
0000
0000
ENDCHAR

STARTCHAR C161=0x0a1
ENCODING 224
SWIDTH 631 0
DWIDTH 12 0
BBX 12 24 0 -6
BITMAP
0000
0C00
0600
0300
0000
0F80
3FC0
70E0
0060
0060
1FE0
3FE0
7060
6060
61E0
7FE0
3E60
0000
0000
0000
0000
0000
0000
0000
ENDCHAR

STARTCHAR C162=0x0a2
ENCODING 225
SWIDTH 631 0
DWIDTH 12 0
BBX 12 24 0 -6
BITMAP
0000
0300
0600
0C00
0000
0F80
3FC0
70E0
0060
0060
1FE0
3FE0
7060
6060
61E0
7FE0
3E60
0000
0000
0000
0000
0000
0000
0000
ENDCHAR

STARTCHAR C163=0x0a3
ENCODING 226
SWIDTH 631 0
DWIDTH 12 0
BBX 12 24 0 -6
BITMAP
0000
0600
0F00
1980
0000
0F80
3FC0
70E0
0060
0060
1FE0
3FE0
7060
6060
61E0
7FE0
3E60
0000
0000
0000
0000
0000
0000
0000
ENDCHAR

STARTCHAR C167=0x0a7
ENCODING 227
SWIDTH 631 0
DWIDTH 12 0
BBX 12 24 0 -6
BITMAP
0000
1C60
36C0
6380
0000
0F80
3FC0
70E0
0060
0060
1FE0
3FE0
7060
6060
61E0
7FE0
3E60
0000
0000
0000
0000
0000
0000
0000
ENDCHAR

STARTCHAR C164=0x0a4
ENCODING 228
SWIDTH 631 0
DWIDTH 12 0
BBX 12 24 0 -6
BITMAP
0000
0000
30C0
30C0
0000
0F80
3FC0
70E0
0060
0060
1FE0
3FE0
7060
6060
61E0
7FE0
3E60
0000
0000
0000
0000
0000
0000
0000
ENDCHAR

STARTCHAR C165=0x0a5
ENCODING 229
SWIDTH 631 0
DWIDTH 12 0
BBX 12 24 0 -6
BITMAP
0000
0F00
1980
1980
0F00
0F80
3FC0
70E0
0060
0060
1FE0
3FE0
7060
6060
61E0
7FE0
3E60
0000
0000
0000
0000
0000
0000
0000
ENDCHAR

STARTCHAR C169=0x0a9
ENCODING 230
SWIDTH 631 0
DWIDTH 12 0
BBX 12 24 0 -6
BITMAP
0000
0000
0000
0000
0000
3FC0
7FE0
6660
0660
07E0
3FE0
7E00
6600
6600
6660
7FE0
3DC0
0000
0000
0000
0000
0000
0000
0000
ENDCHAR

STARTCHAR C170=0x0aa
ENCODING 231
SWIDTH 631 0
DWIDTH 12 0
BBX 12 24 0 -6
BITMAP
0000
0000
0000
0000
0000
0FC0
3FE0
3060
6000
6000
6000
6000
6000
6000
3060
3FE0
0FC0
0180
00C0
1860
1FE0
0FC0
0000
0000
ENDCHAR

STARTCHAR C176=0x0b0
ENCODING 232
SWIDTH 631 0
DWIDTH 12 0
BBX 12 24 0 -6
BITMAP
0000
0C00
0600
0300
0000
0F00
3FC0
30C0
6060
6060
7FE0
7FE0
6000
6000
30C0
3FC0
0F80
0000
0000
0000
0000
0000
0000
0000
ENDCHAR

STARTCHAR C177=0x0b1
ENCODING 233
SWIDTH 631 0
DWIDTH 12 0
BBX 12 24 0 -6
BITMAP
0000
0300
0600
0C00
0000
0F00
3FC0
30C0
6060
6060
7FE0
7FE0
6000
6000
30C0
3FC0
0F80
0000
0000
0000
0000
0000
0000
0000
ENDCHAR

STARTCHAR C178=0x0b2
ENCODING 234
SWIDTH 631 0
DWIDTH 12 0
BBX 12 24 0 -6
BITMAP
0000
0600
0F00
1980
0000
0F00
3FC0
30C0
6060
6060
7FE0
7FE0
6000
6000
30C0
3FC0
0F80
0000
0000
0000
0000
0000
0000
0000
ENDCHAR

STARTCHAR C179=0x0b3
ENCODING 235
SWIDTH 631 0
DWIDTH 12 0
BBX 12 24 0 -6
BITMAP
0000
0000
30C0
30C0
0000
0F00
3FC0
30C0
6060
6060
7FE0
7FE0
6000
6000
70C0
3FC0
0F80
0000
0000
0000
0000
0000
0000
0000
ENDCHAR

STARTCHAR C185=0x0b9
ENCODING 236
SWIDTH 631 0
DWIDTH 12 0
BBX 12 24 0 -6
BITMAP
0000
1800
0C00
0600
0000
1E00
1E00
0600
0600
0600
0600
0600
0600
0600
0600
1F80
1F80
0000
0000
0000
0000
0000
0000
0000
ENDCHAR

STARTCHAR C383=0x17f
ENCODING 237
SWIDTH 631 0
DWIDTH 12 0
BBX 12 24 0 -6
BITMAP
0000
0300
0600
0C00
0000
1E00
1E00
0600
0600
0600
0600
0600
0600
0600
0600
1F80
1F80
0000
0000
0000
0000
0000
0000
0000
ENDCHAR

STARTCHAR C184=0x0b8
ENCODING 238
SWIDTH 631 0
DWIDTH 12 0
BBX 12 24 0 -6
BITMAP
0000
0600
0F00
1980
0000
1E00
1E00
0600
0600
0600
0600
0600
0600
0600
0600
1F80
1F80
0000
0000
0000
0000
0000
0000
0000
ENDCHAR

STARTCHAR C187=0x0bb
ENCODING 239
SWIDTH 631 0
DWIDTH 12 0
BBX 12 24 0 -6
BITMAP
0000
0000
3180
3180
0000
1E00
1E00
0600
0600
0600
0600
0600
0600
0600
0600
1F80
1F80
0000
0000
0000
0000
0000
0000
0000
ENDCHAR

STARTCHAR C173=0x0ad
ENCODING 240
SWIDTH 631 0
DWIDTH 12 0
BBX 12 24 0 -6
BITMAP
0000
0000
6600
7E00
3C00
7E00
6700
0380
01C0
0FC0
1FE0
38E0
3060
3060
38E0
1FC0
0F80
0000
0000
0000
0000
0000
0000
0000
ENDCHAR

STARTCHAR C194=0x0c2
ENCODING 241
SWIDTH 631 0
DWIDTH 12 0
BBX 12 24 0 -6
BITMAP
0000
1C60
36C0
6380
0000
6780
7FC0
78E0
6060
6060
6060
6060
6060
6060
6060
6060
6060
0000
0000
0000
0000
0000
0000
0000
ENDCHAR

STARTCHAR C195=0x0c3
ENCODING 242
SWIDTH 631 0
DWIDTH 12 0
BBX 12 24 0 -6
BITMAP
0000
0C00
0600
0300
0000
0F00
3FC0
30C0
6060
6060
6060
6060
6060
6060
30E0
3FC0
0F80
0000
0000
0000
0000
0000
0000
0000
ENDCHAR

STARTCHAR C196=0x0c4
ENCODING 243
SWIDTH 631 0
DWIDTH 12 0
BBX 12 24 0 -6
BITMAP
0000
0300
0600
0C00
0000
0F00
3FC0
30C0
60E0
6060
6060
6060
6060
6060
30C0
3FC0
1F80
0000
0000
0000
0000
0000
0000
0000
ENDCHAR

STARTCHAR C197=0x0c5
ENCODING 244
SWIDTH 631 0
DWIDTH 12 0
BBX 12 24 0 -6
BITMAP
0000
0600
0F00
1980
0000
0F00
3FC0
30C0
6060
6060
6060
6060
6060
6060
30C0
3FC0
0F00
0000
0000
0000
0000
0000
0000
0000
ENDCHAR

STARTCHAR C199=0x0c7
ENCODING 245
SWIDTH 631 0
DWIDTH 12 0
BBX 12 24 0 -6
BITMAP
0000
1C60
36C0
6380
0000
0F00
3FC0
30C0
6060
6060
6060
6060
6060
6060
30C0
3FC0
0F00
0000
0000
0000
0000
0000
0000
0000
ENDCHAR

STARTCHAR C198=0x0c6
ENCODING 246
SWIDTH 631 0
DWIDTH 12 0
BBX 12 24 0 -6
BITMAP
0000
0000
30C0
30C0
0000
0F00
3FC0
30C0
6060
6060
6060
6060
6060
6060
30C0
3FC0
0F00
0000
0000
0000
0000
0000
0000
0000
ENDCHAR

STARTCHAR C487=0x1e7
ENCODING 247
SWIDTH 631 0
DWIDTH 12 0
BBX 12 24 0 -6
BITMAP
0000
0000
0000
0000
0000
0000
0600
0600
0000
0000
3FC0
3FC0
0000
0000
0600
0600
0000
0000
0000
0000
0000
0000
0000
0000
ENDCHAR

STARTCHAR C200=0x0c8
ENCODING 248
SWIDTH 631 0
DWIDTH 12 0
BBX 12 24 0 -6
BITMAP
0000
0000
0000
0000
0000
0F60
3FE0
30C0
61E0
63E0
6760
6E60
7C60
7860
30C0
7FC0
6F00
0000
0000
0000
0000
0000
0000
0000
ENDCHAR

STARTCHAR C212=0x0d4
ENCODING 249
SWIDTH 631 0
DWIDTH 12 0
BBX 12 24 0 -6
BITMAP
0000
0C00
0600
0300
0000
6060
6060
6060
6060
6060
6060
6060
6060
61E0
73E0
3F60
1E60
0000
0000
0000
0000
0000
0000
0000
ENDCHAR

STARTCHAR C213=0x0d5
ENCODING 250
SWIDTH 631 0
DWIDTH 12 0
BBX 12 24 0 -6
BITMAP
0000
0300
0600
0C00
0000
6060
6060
6060
6060
6060
6060
6060
6060
61E0
73E0
3F60
1E60
0000
0000
0000
0000
0000
0000
0000
ENDCHAR

STARTCHAR C214=0x0d6
ENCODING 251
SWIDTH 631 0
DWIDTH 12 0
BBX 12 24 0 -6
BITMAP
0000
0600
0F00
1980
0000
6060
6060
6060
6060
6060
6060
6060
6060
61E0
73E0
3F60
1E60
0000
0000
0000
0000
0000
0000
0000
ENDCHAR

STARTCHAR C215=0x0d7
ENCODING 252
SWIDTH 631 0
DWIDTH 12 0
BBX 12 24 0 -6
BITMAP
0000
0000
30C0
30C0
0000
6060
6060
6060
6060
6060
6060
6060
6060
61E0
73E0
3F60
1E60
0000
0000
0000
0000
0000
0000
0000
ENDCHAR

STARTCHAR C218=0x0da
ENCODING 253
SWIDTH 631 0
DWIDTH 12 0
BBX 12 24 0 -6
BITMAP
0000
0300
0600
0C00
0000
6060
6060
70E0
30C0
30C0
39C0
1980
1980
0F00
0F00
0600
0600
0600
0E00
7C00
7800
0000
0000
0000
ENDCHAR

STARTCHAR C203=0x0cb
ENCODING 254
SWIDTH 631 0
DWIDTH 12 0
BBX 12 24 0 -6
BITMAP
0000
0000
0000
0000
0000
3000
3000
3380
37C0
3CE0
3860
3060
3060
3860
3CE0
37C0
3380
3000
3000
3000
3000
0000
0000
0000
ENDCHAR

STARTCHAR C219=0x0db
ENCODING 255
SWIDTH 631 0
DWIDTH 12 0
BBX 12 24 0 -6
BITMAP
0000
0000
30C0
30C0
0000
6060
6060
70E0
30C0
30C0
39C0
1980
1980
0F00
0F00
0600
0600
0600
0E00
7C00
7800
0000
0000
0000
ENDCHAR
ENDFONT
